<mxfile host="app.diagrams.net" modified="2021-08-29T18:24:38.178Z" agent="5.0 (Windows NT 10.0; Win64; x64) AppleWebKit/537.36 (KHTML, like Gecko) Chrome/92.0.4515.159 Safari/537.36" etag="9G97MS0zWvgEmq31xc-p" version="15.0.2" type="github" pages="6">
  <diagram id="3-jc2KOT96rvmajafxHe" name="Casos de Uso">
    <mxGraphModel dx="728" dy="468" grid="1" gridSize="10" guides="1" tooltips="1" connect="1" arrows="1" fold="1" page="1" pageScale="1" pageWidth="827" pageHeight="1169" math="0" shadow="0">
      <root>
        <mxCell id="0" />
        <mxCell id="1" parent="0" />
        <mxCell id="Dc3FUhngtaHyiwa6JVs5-4" style="rounded=0;orthogonalLoop=1;jettySize=auto;html=1;exitX=0.75;exitY=0.1;exitDx=0;exitDy=0;exitPerimeter=0;" parent="1" source="Dc3FUhngtaHyiwa6JVs5-1" target="Dc3FUhngtaHyiwa6JVs5-2" edge="1">
          <mxGeometry relative="1" as="geometry">
            <mxPoint x="110" y="140" as="sourcePoint" />
          </mxGeometry>
        </mxCell>
        <mxCell id="Dc3FUhngtaHyiwa6JVs5-9" style="rounded=0;orthogonalLoop=1;jettySize=auto;html=1;" parent="1" source="Dc3FUhngtaHyiwa6JVs5-1" target="Dc3FUhngtaHyiwa6JVs5-6" edge="1">
          <mxGeometry relative="1" as="geometry" />
        </mxCell>
        <mxCell id="YPjzV4_FD0VkRBpMNrDG-1" style="rounded=0;orthogonalLoop=1;jettySize=auto;html=1;startArrow=classic;startFill=1;endArrow=none;endFill=0;exitX=0.014;exitY=0.6;exitDx=0;exitDy=0;exitPerimeter=0;" edge="1" parent="1" source="Dc3FUhngtaHyiwa6JVs5-13" target="Dc3FUhngtaHyiwa6JVs5-1">
          <mxGeometry relative="1" as="geometry">
            <mxPoint x="100" y="340" as="targetPoint" />
          </mxGeometry>
        </mxCell>
        <mxCell id="Dc3FUhngtaHyiwa6JVs5-1" value="Administrador" style="shape=umlActor;verticalLabelPosition=bottom;verticalAlign=top;html=1;outlineConnect=0;" parent="1" vertex="1">
          <mxGeometry x="70" y="140" width="50" height="100" as="geometry" />
        </mxCell>
        <mxCell id="Dc3FUhngtaHyiwa6JVs5-2" value="Crear Curso" style="ellipse;whiteSpace=wrap;html=1;" parent="1" vertex="1">
          <mxGeometry x="230" y="90" width="140" height="70" as="geometry" />
        </mxCell>
        <mxCell id="Dc3FUhngtaHyiwa6JVs5-12" style="rounded=0;orthogonalLoop=1;jettySize=auto;html=1;" parent="1" source="Dc3FUhngtaHyiwa6JVs5-10" target="Dc3FUhngtaHyiwa6JVs5-11" edge="1">
          <mxGeometry relative="1" as="geometry" />
        </mxCell>
        <mxCell id="Dc3FUhngtaHyiwa6JVs5-10" value="Usuario" style="shape=umlActor;html=1;verticalLabelPosition=bottom;verticalAlign=top;align=center;" parent="1" vertex="1">
          <mxGeometry x="690" y="215" width="30" height="60" as="geometry" />
        </mxCell>
        <mxCell id="Dc3FUhngtaHyiwa6JVs5-11" value="Consultar Curso" style="ellipse;whiteSpace=wrap;html=1;" parent="1" vertex="1">
          <mxGeometry x="400" y="210" width="140" height="70" as="geometry" />
        </mxCell>
        <mxCell id="Dc3FUhngtaHyiwa6JVs5-13" value="Crear descuento" style="ellipse;whiteSpace=wrap;html=1;" parent="1" vertex="1">
          <mxGeometry x="230" y="330" width="140" height="70" as="geometry" />
        </mxCell>
        <mxCell id="Dc3FUhngtaHyiwa6JVs5-6" value="Editar Curso" style="ellipse;whiteSpace=wrap;html=1;" parent="1" vertex="1">
          <mxGeometry x="230" y="210" width="140" height="70" as="geometry" />
        </mxCell>
      </root>
    </mxGraphModel>
  </diagram>
  <diagram id="3jOHpTGLvnr4IspVN57_" name="Clases">
    <mxGraphModel dx="728" dy="468" grid="1" gridSize="10" guides="1" tooltips="1" connect="1" arrows="1" fold="1" page="1" pageScale="1" pageWidth="827" pageHeight="1169" math="0" shadow="0">
      <root>
        <mxCell id="h4LPeawRPh2lPYGtJkT0-0" />
        <mxCell id="h4LPeawRPh2lPYGtJkT0-1" parent="h4LPeawRPh2lPYGtJkT0-0" />
        <mxCell id="h4LPeawRPh2lPYGtJkT0-2" value="Curso" style="swimlane;fontStyle=1;align=center;verticalAlign=top;childLayout=stackLayout;horizontal=1;startSize=26;horizontalStack=0;resizeParent=1;resizeParentMax=0;resizeLast=0;collapsible=1;marginBottom=0;" vertex="1" parent="h4LPeawRPh2lPYGtJkT0-1">
          <mxGeometry x="130" y="30" width="160" height="168" as="geometry" />
        </mxCell>
        <mxCell id="h4LPeawRPh2lPYGtJkT0-3" value="- nombre: String&#xa;- costo: BigDecimal&#xa;- descripcion: String&#xa;- horas: Integer&#xa;- dirigidoA: String&#xa;- modalidad: Modalidad" style="text;strokeColor=none;fillColor=none;align=left;verticalAlign=top;spacingLeft=4;spacingRight=4;overflow=hidden;rotatable=0;points=[[0,0.5],[1,0.5]];portConstraint=eastwest;" vertex="1" parent="h4LPeawRPh2lPYGtJkT0-2">
          <mxGeometry y="26" width="160" height="134" as="geometry" />
        </mxCell>
        <mxCell id="h4LPeawRPh2lPYGtJkT0-4" value="" style="line;strokeWidth=1;fillColor=none;align=left;verticalAlign=middle;spacingTop=-1;spacingLeft=3;spacingRight=3;rotatable=0;labelPosition=right;points=[];portConstraint=eastwest;" vertex="1" parent="h4LPeawRPh2lPYGtJkT0-2">
          <mxGeometry y="160" width="160" height="8" as="geometry" />
        </mxCell>
        <mxCell id="h4LPeawRPh2lPYGtJkT0-11" value="Modalidad" style="swimlane;fontStyle=1;align=center;verticalAlign=top;childLayout=stackLayout;horizontal=1;startSize=26;horizontalStack=0;resizeParent=1;resizeParentMax=0;resizeLast=0;collapsible=1;marginBottom=0;" vertex="1" parent="h4LPeawRPh2lPYGtJkT0-1">
          <mxGeometry x="390" y="60" width="160" height="88" as="geometry" />
        </mxCell>
        <mxCell id="h4LPeawRPh2lPYGtJkT0-12" value="- nombre: String&#xa;- descripcion: String" style="text;strokeColor=none;fillColor=none;align=left;verticalAlign=top;spacingLeft=4;spacingRight=4;overflow=hidden;rotatable=0;points=[[0,0.5],[1,0.5]];portConstraint=eastwest;" vertex="1" parent="h4LPeawRPh2lPYGtJkT0-11">
          <mxGeometry y="26" width="160" height="54" as="geometry" />
        </mxCell>
        <mxCell id="h4LPeawRPh2lPYGtJkT0-13" value="" style="line;strokeWidth=1;fillColor=none;align=left;verticalAlign=middle;spacingTop=-1;spacingLeft=3;spacingRight=3;rotatable=0;labelPosition=right;points=[];portConstraint=eastwest;" vertex="1" parent="h4LPeawRPh2lPYGtJkT0-11">
          <mxGeometry y="80" width="160" height="8" as="geometry" />
        </mxCell>
        <mxCell id="h4LPeawRPh2lPYGtJkT0-15" style="edgeStyle=orthogonalEdgeStyle;rounded=0;orthogonalLoop=1;jettySize=auto;html=1;" edge="1" parent="h4LPeawRPh2lPYGtJkT0-1" source="h4LPeawRPh2lPYGtJkT0-3" target="h4LPeawRPh2lPYGtJkT0-12">
          <mxGeometry relative="1" as="geometry" />
        </mxCell>
        <mxCell id="h4LPeawRPh2lPYGtJkT0-20" style="edgeStyle=orthogonalEdgeStyle;rounded=0;orthogonalLoop=1;jettySize=auto;html=1;entryX=0.5;entryY=1;entryDx=0;entryDy=0;" edge="1" parent="h4LPeawRPh2lPYGtJkT0-1" source="h4LPeawRPh2lPYGtJkT0-16" target="h4LPeawRPh2lPYGtJkT0-2">
          <mxGeometry relative="1" as="geometry" />
        </mxCell>
        <mxCell id="h4LPeawRPh2lPYGtJkT0-21" style="edgeStyle=orthogonalEdgeStyle;rounded=0;orthogonalLoop=1;jettySize=auto;html=1;entryX=0.5;entryY=1;entryDx=0;entryDy=0;" edge="1" parent="h4LPeawRPh2lPYGtJkT0-1" source="h4LPeawRPh2lPYGtJkT0-16" target="h4LPeawRPh2lPYGtJkT0-11">
          <mxGeometry relative="1" as="geometry" />
        </mxCell>
        <mxCell id="h4LPeawRPh2lPYGtJkT0-16" value="Descuento" style="swimlane;fontStyle=1;align=center;verticalAlign=top;childLayout=stackLayout;horizontal=1;startSize=26;horizontalStack=0;resizeParent=1;resizeParentMax=0;resizeLast=0;collapsible=1;marginBottom=0;" vertex="1" parent="h4LPeawRPh2lPYGtJkT0-1">
          <mxGeometry x="130" y="280" width="160" height="154" as="geometry" />
        </mxCell>
        <mxCell id="h4LPeawRPh2lPYGtJkT0-17" value="- nombre: String&#xa;- modalidad: Modalidad&#xa;- pais: String&#xa;- descuento: Integer&#xa;- curso: Curso&#xa;- fechaFinal : Date" style="text;strokeColor=none;fillColor=none;align=left;verticalAlign=top;spacingLeft=4;spacingRight=4;overflow=hidden;rotatable=0;points=[[0,0.5],[1,0.5]];portConstraint=eastwest;" vertex="1" parent="h4LPeawRPh2lPYGtJkT0-16">
          <mxGeometry y="26" width="160" height="94" as="geometry" />
        </mxCell>
        <mxCell id="h4LPeawRPh2lPYGtJkT0-18" value="" style="line;strokeWidth=1;fillColor=none;align=left;verticalAlign=middle;spacingTop=-1;spacingLeft=3;spacingRight=3;rotatable=0;labelPosition=right;points=[];portConstraint=eastwest;" vertex="1" parent="h4LPeawRPh2lPYGtJkT0-16">
          <mxGeometry y="120" width="160" height="8" as="geometry" />
        </mxCell>
        <mxCell id="h4LPeawRPh2lPYGtJkT0-19" value="+ method(type): type" style="text;strokeColor=none;fillColor=none;align=left;verticalAlign=top;spacingLeft=4;spacingRight=4;overflow=hidden;rotatable=0;points=[[0,0.5],[1,0.5]];portConstraint=eastwest;" vertex="1" parent="h4LPeawRPh2lPYGtJkT0-16">
          <mxGeometry y="128" width="160" height="26" as="geometry" />
        </mxCell>
      </root>
    </mxGraphModel>
  </diagram>
  <diagram id="BSneIa-HgzFEnQ4EExSV" name="Secuencia Crear/Editar Curso">
    <mxGraphModel dx="728" dy="468" grid="1" gridSize="10" guides="1" tooltips="1" connect="1" arrows="1" fold="1" page="1" pageScale="1" pageWidth="827" pageHeight="1169" math="0" shadow="0">
      <root>
        <mxCell id="GPRwDwAC4LAFP4Bqahqy-0" />
        <mxCell id="GPRwDwAC4LAFP4Bqahqy-1" parent="GPRwDwAC4LAFP4Bqahqy-0" />
        <mxCell id="LC-XNduJCxu8wO83jDUi-1" value="" style="html=1;points=[];perimeter=orthogonalPerimeter;" vertex="1" parent="GPRwDwAC4LAFP4Bqahqy-1">
          <mxGeometry x="200" y="100" width="20" height="260" as="geometry" />
        </mxCell>
        <mxCell id="LC-XNduJCxu8wO83jDUi-2" value="crearCurso()&lt;br&gt;" style="html=1;verticalAlign=bottom;endArrow=block;entryX=0;entryY=0;" edge="1" parent="GPRwDwAC4LAFP4Bqahqy-1">
          <mxGeometry relative="1" as="geometry">
            <mxPoint x="70" y="110" as="sourcePoint" />
            <mxPoint x="200" y="110" as="targetPoint" />
            <Array as="points">
              <mxPoint x="120" y="110" />
            </Array>
          </mxGeometry>
        </mxCell>
        <mxCell id="LC-XNduJCxu8wO83jDUi-3" value="return" style="html=1;verticalAlign=bottom;endArrow=open;dashed=1;endSize=8;exitX=0;exitY=0.95;" edge="1" source="LC-XNduJCxu8wO83jDUi-1" parent="GPRwDwAC4LAFP4Bqahqy-1" target="nEwmDOgocevNhw1RjTu2-0">
          <mxGeometry relative="1" as="geometry">
            <mxPoint x="80" y="260" as="targetPoint" />
          </mxGeometry>
        </mxCell>
        <mxCell id="LC-XNduJCxu8wO83jDUi-9" value="" style="html=1;points=[];perimeter=orthogonalPerimeter;" vertex="1" parent="GPRwDwAC4LAFP4Bqahqy-1">
          <mxGeometry x="435" y="200" width="10" height="80" as="geometry" />
        </mxCell>
        <mxCell id="LC-XNduJCxu8wO83jDUi-10" value="guardarCurso(Curso)" style="html=1;verticalAlign=bottom;endArrow=block;" edge="1" parent="GPRwDwAC4LAFP4Bqahqy-1">
          <mxGeometry relative="1" as="geometry">
            <mxPoint x="220" y="225" as="sourcePoint" />
            <mxPoint x="435" y="225" as="targetPoint" />
            <Array as="points">
              <mxPoint x="290" y="225" />
              <mxPoint x="400" y="225" />
            </Array>
          </mxGeometry>
        </mxCell>
        <mxCell id="LC-XNduJCxu8wO83jDUi-11" value="return" style="html=1;verticalAlign=bottom;endArrow=open;dashed=1;endSize=8;exitX=0;exitY=0.95;" edge="1" source="LC-XNduJCxu8wO83jDUi-9" parent="GPRwDwAC4LAFP4Bqahqy-1">
          <mxGeometry relative="1" as="geometry">
            <mxPoint x="220" y="276" as="targetPoint" />
            <Array as="points">
              <mxPoint x="390" y="276" />
            </Array>
          </mxGeometry>
        </mxCell>
        <object label="" id="LC-XNduJCxu8wO83jDUi-12">
          <mxCell style="edgeStyle=orthogonalEdgeStyle;rounded=0;orthogonalLoop=1;jettySize=auto;html=1;exitX=1.1;exitY=0.236;exitDx=0;exitDy=0;exitPerimeter=0;" edge="1" parent="GPRwDwAC4LAFP4Bqahqy-1" source="LC-XNduJCxu8wO83jDUi-1">
            <mxGeometry relative="1" as="geometry">
              <mxPoint x="240" y="160" as="sourcePoint" />
              <mxPoint x="223" y="190" as="targetPoint" />
              <Array as="points">
                <mxPoint x="222" y="160" />
                <mxPoint x="270" y="160" />
                <mxPoint x="270" y="190" />
                <mxPoint x="223" y="190" />
              </Array>
            </mxGeometry>
          </mxCell>
        </object>
        <mxCell id="LC-XNduJCxu8wO83jDUi-13" value="validarDatos()" style="edgeLabel;html=1;align=center;verticalAlign=middle;resizable=0;points=[];" vertex="1" connectable="0" parent="LC-XNduJCxu8wO83jDUi-12">
          <mxGeometry x="-0.4051" y="2" relative="1" as="geometry">
            <mxPoint y="12" as="offset" />
          </mxGeometry>
        </mxCell>
        <mxCell id="LC-XNduJCxu8wO83jDUi-15" value=":CursoService" style="shape=umlLifeline;perimeter=lifelinePerimeter;whiteSpace=wrap;html=1;container=1;collapsible=0;recursiveResize=0;outlineConnect=0;" vertex="1" parent="GPRwDwAC4LAFP4Bqahqy-1">
          <mxGeometry x="390" y="20" width="100" height="350" as="geometry" />
        </mxCell>
        <mxCell id="LC-XNduJCxu8wO83jDUi-16" value="CursosController" style="shape=umlLifeline;participant=umlControl;perimeter=lifelinePerimeter;whiteSpace=wrap;html=1;container=1;collapsible=0;recursiveResize=0;verticalAlign=top;spacingTop=36;outlineConnect=0;" vertex="1" parent="GPRwDwAC4LAFP4Bqahqy-1">
          <mxGeometry x="190" width="40" height="430" as="geometry" />
        </mxCell>
        <mxCell id="LC-XNduJCxu8wO83jDUi-17" value=":CursoServiceDao" style="shape=umlLifeline;perimeter=lifelinePerimeter;whiteSpace=wrap;html=1;container=1;collapsible=0;recursiveResize=0;outlineConnect=0;" vertex="1" parent="GPRwDwAC4LAFP4Bqahqy-1">
          <mxGeometry x="570" y="20" width="100" height="300" as="geometry" />
        </mxCell>
        <mxCell id="nEwmDOgocevNhw1RjTu2-6" style="edgeStyle=orthogonalEdgeStyle;rounded=0;orthogonalLoop=1;jettySize=auto;html=1;entryX=1.033;entryY=0.775;entryDx=0;entryDy=0;entryPerimeter=0;" edge="1" parent="GPRwDwAC4LAFP4Bqahqy-1" source="LC-XNduJCxu8wO83jDUi-19" target="LC-XNduJCxu8wO83jDUi-9">
          <mxGeometry relative="1" as="geometry">
            <Array as="points">
              <mxPoint x="560" y="262" />
              <mxPoint x="560" y="262" />
            </Array>
          </mxGeometry>
        </mxCell>
        <mxCell id="nEwmDOgocevNhw1RjTu2-7" value="return" style="edgeLabel;html=1;align=center;verticalAlign=middle;resizable=0;points=[];" vertex="1" connectable="0" parent="nEwmDOgocevNhw1RjTu2-6">
          <mxGeometry x="-0.2179" y="1" relative="1" as="geometry">
            <mxPoint as="offset" />
          </mxGeometry>
        </mxCell>
        <mxCell id="LC-XNduJCxu8wO83jDUi-19" value="" style="html=1;points=[];perimeter=orthogonalPerimeter;" vertex="1" parent="GPRwDwAC4LAFP4Bqahqy-1">
          <mxGeometry x="610" y="200" width="20" height="80" as="geometry" />
        </mxCell>
        <mxCell id="LC-XNduJCxu8wO83jDUi-20" value="guardarCurso(Curso)" style="html=1;verticalAlign=bottom;startArrow=oval;endArrow=block;startSize=8;" edge="1" target="LC-XNduJCxu8wO83jDUi-19" parent="GPRwDwAC4LAFP4Bqahqy-1">
          <mxGeometry relative="1" as="geometry">
            <mxPoint x="439.5" y="225" as="sourcePoint" />
          </mxGeometry>
        </mxCell>
        <mxCell id="nEwmDOgocevNhw1RjTu2-0" value="Administrador" style="shape=umlLifeline;participant=umlActor;perimeter=lifelinePerimeter;whiteSpace=wrap;html=1;container=1;collapsible=0;recursiveResize=0;verticalAlign=top;spacingTop=36;outlineConnect=0;" vertex="1" parent="GPRwDwAC4LAFP4Bqahqy-1">
          <mxGeometry x="60" y="30" width="20" height="350" as="geometry" />
        </mxCell>
        <mxCell id="nEwmDOgocevNhw1RjTu2-2" value="Curso" style="shape=umlLifeline;participant=umlEntity;perimeter=lifelinePerimeter;whiteSpace=wrap;html=1;container=1;collapsible=0;recursiveResize=0;verticalAlign=top;spacingTop=36;outlineConnect=0;" vertex="1" parent="GPRwDwAC4LAFP4Bqahqy-1">
          <mxGeometry x="740" y="20" width="40" height="300" as="geometry" />
        </mxCell>
        <mxCell id="nEwmDOgocevNhw1RjTu2-4" value="" style="html=1;points=[];perimeter=orthogonalPerimeter;" vertex="1" parent="GPRwDwAC4LAFP4Bqahqy-1">
          <mxGeometry x="750" y="210" width="20" height="80" as="geometry" />
        </mxCell>
        <mxCell id="nEwmDOgocevNhw1RjTu2-5" value="guardar" style="html=1;verticalAlign=bottom;startArrow=oval;endArrow=block;startSize=8;" edge="1" parent="GPRwDwAC4LAFP4Bqahqy-1">
          <mxGeometry relative="1" as="geometry">
            <mxPoint x="630" y="240" as="sourcePoint" />
            <mxPoint x="750" y="240" as="targetPoint" />
          </mxGeometry>
        </mxCell>
        <object label="" id="XgNv2kSdmVL2S2evHAtU-0">
          <mxCell style="edgeStyle=orthogonalEdgeStyle;rounded=0;orthogonalLoop=1;jettySize=auto;html=1;" edge="1" parent="GPRwDwAC4LAFP4Bqahqy-1">
            <mxGeometry relative="1" as="geometry">
              <mxPoint x="220" y="300" as="sourcePoint" />
              <mxPoint x="220" y="330" as="targetPoint" />
              <Array as="points">
                <mxPoint x="270" y="300" />
                <mxPoint x="270" y="330" />
                <mxPoint x="220" y="330" />
              </Array>
            </mxGeometry>
          </mxCell>
        </object>
        <mxCell id="XgNv2kSdmVL2S2evHAtU-1" value="mostrarMensajeSatisfactorio()" style="edgeLabel;html=1;align=center;verticalAlign=middle;resizable=0;points=[];" vertex="1" connectable="0" parent="XgNv2kSdmVL2S2evHAtU-0">
          <mxGeometry x="-0.4051" y="2" relative="1" as="geometry">
            <mxPoint x="67" y="12" as="offset" />
          </mxGeometry>
        </mxCell>
      </root>
    </mxGraphModel>
  </diagram>
  <diagram name="Secuencia Crear/Editar Descuento" id="BBPL7Hdzhn3U6H6pD-kF">
    <mxGraphModel dx="728" dy="468" grid="1" gridSize="10" guides="1" tooltips="1" connect="1" arrows="1" fold="1" page="1" pageScale="1" pageWidth="827" pageHeight="1169" math="0" shadow="0">
      <root>
        <mxCell id="EdO15zQyMsvWJxm9oxcJ-0" />
        <mxCell id="EdO15zQyMsvWJxm9oxcJ-1" parent="EdO15zQyMsvWJxm9oxcJ-0" />
        <mxCell id="EdO15zQyMsvWJxm9oxcJ-2" value="" style="html=1;points=[];perimeter=orthogonalPerimeter;" vertex="1" parent="EdO15zQyMsvWJxm9oxcJ-1">
          <mxGeometry x="200" y="100" width="20" height="260" as="geometry" />
        </mxCell>
        <mxCell id="EdO15zQyMsvWJxm9oxcJ-3" value="crearDescuento()" style="html=1;verticalAlign=bottom;endArrow=block;entryX=0;entryY=0;" edge="1" parent="EdO15zQyMsvWJxm9oxcJ-1">
          <mxGeometry relative="1" as="geometry">
            <mxPoint x="70" y="110" as="sourcePoint" />
            <mxPoint x="200" y="110" as="targetPoint" />
            <Array as="points">
              <mxPoint x="120" y="110" />
            </Array>
          </mxGeometry>
        </mxCell>
        <mxCell id="EdO15zQyMsvWJxm9oxcJ-4" value="return" style="html=1;verticalAlign=bottom;endArrow=open;dashed=1;endSize=8;exitX=0;exitY=0.95;" edge="1" parent="EdO15zQyMsvWJxm9oxcJ-1" source="EdO15zQyMsvWJxm9oxcJ-2" target="EdO15zQyMsvWJxm9oxcJ-17">
          <mxGeometry relative="1" as="geometry">
            <mxPoint x="80" y="260" as="targetPoint" />
          </mxGeometry>
        </mxCell>
        <mxCell id="EdO15zQyMsvWJxm9oxcJ-5" value="" style="html=1;points=[];perimeter=orthogonalPerimeter;" vertex="1" parent="EdO15zQyMsvWJxm9oxcJ-1">
          <mxGeometry x="435" y="200" width="10" height="80" as="geometry" />
        </mxCell>
        <mxCell id="EdO15zQyMsvWJxm9oxcJ-6" value="guardarDescuento(Curso, Modalidad)" style="html=1;verticalAlign=bottom;endArrow=block;" edge="1" parent="EdO15zQyMsvWJxm9oxcJ-1">
          <mxGeometry relative="1" as="geometry">
            <mxPoint x="220" y="225" as="sourcePoint" />
            <mxPoint x="435" y="225" as="targetPoint" />
            <Array as="points">
              <mxPoint x="290" y="225" />
              <mxPoint x="400" y="225" />
            </Array>
          </mxGeometry>
        </mxCell>
        <mxCell id="EdO15zQyMsvWJxm9oxcJ-7" value="return" style="html=1;verticalAlign=bottom;endArrow=open;dashed=1;endSize=8;exitX=0;exitY=0.95;" edge="1" parent="EdO15zQyMsvWJxm9oxcJ-1" source="EdO15zQyMsvWJxm9oxcJ-5">
          <mxGeometry relative="1" as="geometry">
            <mxPoint x="220" y="276" as="targetPoint" />
            <Array as="points">
              <mxPoint x="390" y="276" />
            </Array>
          </mxGeometry>
        </mxCell>
        <object label="v" id="EdO15zQyMsvWJxm9oxcJ-8">
          <mxCell style="edgeStyle=orthogonalEdgeStyle;rounded=0;orthogonalLoop=1;jettySize=auto;html=1;" edge="1" parent="EdO15zQyMsvWJxm9oxcJ-1" source="EdO15zQyMsvWJxm9oxcJ-2">
            <mxGeometry relative="1" as="geometry">
              <mxPoint x="220" y="190" as="targetPoint" />
              <Array as="points">
                <mxPoint x="270" y="160" />
                <mxPoint x="270" y="190" />
                <mxPoint x="220" y="190" />
              </Array>
            </mxGeometry>
          </mxCell>
        </object>
        <mxCell id="EdO15zQyMsvWJxm9oxcJ-9" value="validarDatos()" style="edgeLabel;html=1;align=center;verticalAlign=middle;resizable=0;points=[];" vertex="1" connectable="0" parent="EdO15zQyMsvWJxm9oxcJ-8">
          <mxGeometry x="-0.4051" y="2" relative="1" as="geometry">
            <mxPoint y="12" as="offset" />
          </mxGeometry>
        </mxCell>
        <mxCell id="EdO15zQyMsvWJxm9oxcJ-10" value=":CursoService" style="shape=umlLifeline;perimeter=lifelinePerimeter;whiteSpace=wrap;html=1;container=1;collapsible=0;recursiveResize=0;outlineConnect=0;" vertex="1" parent="EdO15zQyMsvWJxm9oxcJ-1">
          <mxGeometry x="390" y="20" width="100" height="350" as="geometry" />
        </mxCell>
        <mxCell id="EdO15zQyMsvWJxm9oxcJ-11" value="CursosController" style="shape=umlLifeline;participant=umlControl;perimeter=lifelinePerimeter;whiteSpace=wrap;html=1;container=1;collapsible=0;recursiveResize=0;verticalAlign=top;spacingTop=36;outlineConnect=0;" vertex="1" parent="EdO15zQyMsvWJxm9oxcJ-1">
          <mxGeometry x="190" width="40" height="430" as="geometry" />
        </mxCell>
        <mxCell id="EdO15zQyMsvWJxm9oxcJ-12" value=":CursoServiceDao" style="shape=umlLifeline;perimeter=lifelinePerimeter;whiteSpace=wrap;html=1;container=1;collapsible=0;recursiveResize=0;outlineConnect=0;" vertex="1" parent="EdO15zQyMsvWJxm9oxcJ-1">
          <mxGeometry x="570" y="20" width="100" height="300" as="geometry" />
        </mxCell>
        <mxCell id="EdO15zQyMsvWJxm9oxcJ-13" style="edgeStyle=orthogonalEdgeStyle;rounded=0;orthogonalLoop=1;jettySize=auto;html=1;entryX=1.033;entryY=0.775;entryDx=0;entryDy=0;entryPerimeter=0;" edge="1" parent="EdO15zQyMsvWJxm9oxcJ-1" source="EdO15zQyMsvWJxm9oxcJ-15" target="EdO15zQyMsvWJxm9oxcJ-5">
          <mxGeometry relative="1" as="geometry">
            <Array as="points">
              <mxPoint x="560" y="262" />
              <mxPoint x="560" y="262" />
            </Array>
          </mxGeometry>
        </mxCell>
        <mxCell id="EdO15zQyMsvWJxm9oxcJ-14" value="return" style="edgeLabel;html=1;align=center;verticalAlign=middle;resizable=0;points=[];" vertex="1" connectable="0" parent="EdO15zQyMsvWJxm9oxcJ-13">
          <mxGeometry x="-0.2179" y="1" relative="1" as="geometry">
            <mxPoint as="offset" />
          </mxGeometry>
        </mxCell>
        <mxCell id="EdO15zQyMsvWJxm9oxcJ-15" value="" style="html=1;points=[];perimeter=orthogonalPerimeter;" vertex="1" parent="EdO15zQyMsvWJxm9oxcJ-1">
          <mxGeometry x="610" y="200" width="20" height="80" as="geometry" />
        </mxCell>
        <mxCell id="EdO15zQyMsvWJxm9oxcJ-16" value="guardarDescuento(Curso, Modalidad)" style="html=1;verticalAlign=bottom;startArrow=oval;endArrow=block;startSize=8;" edge="1" parent="EdO15zQyMsvWJxm9oxcJ-1" target="EdO15zQyMsvWJxm9oxcJ-15">
          <mxGeometry relative="1" as="geometry">
            <mxPoint x="439.5" y="225" as="sourcePoint" />
          </mxGeometry>
        </mxCell>
        <mxCell id="EdO15zQyMsvWJxm9oxcJ-17" value="Administrador" style="shape=umlLifeline;participant=umlActor;perimeter=lifelinePerimeter;whiteSpace=wrap;html=1;container=1;collapsible=0;recursiveResize=0;verticalAlign=top;spacingTop=36;outlineConnect=0;" vertex="1" parent="EdO15zQyMsvWJxm9oxcJ-1">
          <mxGeometry x="60" y="30" width="20" height="350" as="geometry" />
        </mxCell>
        <mxCell id="EdO15zQyMsvWJxm9oxcJ-18" value="Curso" style="shape=umlLifeline;participant=umlEntity;perimeter=lifelinePerimeter;whiteSpace=wrap;html=1;container=1;collapsible=0;recursiveResize=0;verticalAlign=top;spacingTop=36;outlineConnect=0;" vertex="1" parent="EdO15zQyMsvWJxm9oxcJ-1">
          <mxGeometry x="740" y="20" width="40" height="300" as="geometry" />
        </mxCell>
        <mxCell id="EdO15zQyMsvWJxm9oxcJ-19" value="" style="html=1;points=[];perimeter=orthogonalPerimeter;" vertex="1" parent="EdO15zQyMsvWJxm9oxcJ-1">
          <mxGeometry x="750" y="210" width="20" height="80" as="geometry" />
        </mxCell>
        <mxCell id="EdO15zQyMsvWJxm9oxcJ-20" value="guardar" style="html=1;verticalAlign=bottom;startArrow=oval;endArrow=block;startSize=8;exitX=0.967;exitY=0.533;exitDx=0;exitDy=0;exitPerimeter=0;" edge="1" parent="EdO15zQyMsvWJxm9oxcJ-1" source="EdO15zQyMsvWJxm9oxcJ-15">
          <mxGeometry relative="1" as="geometry">
            <mxPoint x="650" y="240" as="sourcePoint" />
            <mxPoint x="751" y="240" as="targetPoint" />
          </mxGeometry>
        </mxCell>
        <object label="v" id="EdO15zQyMsvWJxm9oxcJ-23">
          <mxCell style="edgeStyle=orthogonalEdgeStyle;rounded=0;orthogonalLoop=1;jettySize=auto;html=1;" edge="1" parent="EdO15zQyMsvWJxm9oxcJ-1">
            <mxGeometry relative="1" as="geometry">
              <mxPoint x="220" y="300" as="sourcePoint" />
              <mxPoint x="220" y="330" as="targetPoint" />
              <Array as="points">
                <mxPoint x="270" y="300" />
                <mxPoint x="270" y="330" />
                <mxPoint x="220" y="330" />
              </Array>
            </mxGeometry>
          </mxCell>
        </object>
        <mxCell id="EdO15zQyMsvWJxm9oxcJ-24" value="mostrarMensajeSatisfactorio" style="edgeLabel;html=1;align=center;verticalAlign=middle;resizable=0;points=[];" vertex="1" connectable="0" parent="EdO15zQyMsvWJxm9oxcJ-23">
          <mxGeometry x="-0.4051" y="2" relative="1" as="geometry">
            <mxPoint x="41" y="12" as="offset" />
          </mxGeometry>
        </mxCell>
      </root>
    </mxGraphModel>
  </diagram>
  <diagram id="zIn-sqqzP4qhQC8yOCPw" name="Actividad">
    <mxGraphModel dx="728" dy="468" grid="1" gridSize="10" guides="1" tooltips="1" connect="1" arrows="1" fold="1" page="1" pageScale="1" pageWidth="827" pageHeight="1169" math="0" shadow="0">
      <root>
        <mxCell id="TeB9Y_pQrQr1MYcJ8kXz-0" />
        <mxCell id="TeB9Y_pQrQr1MYcJ8kXz-1" parent="TeB9Y_pQrQr1MYcJ8kXz-0" />
        <mxCell id="TeB9Y_pQrQr1MYcJ8kXz-2" value="Mostrar Formulario&amp;nbsp; Cursos" style="rounded=1;whiteSpace=wrap;html=1;arcSize=40;fontColor=#000000;fillColor=#ffffc0;strokeColor=#ff0000;" vertex="1" parent="TeB9Y_pQrQr1MYcJ8kXz-1">
          <mxGeometry x="255" y="250" width="120" height="40" as="geometry" />
        </mxCell>
        <mxCell id="TeB9Y_pQrQr1MYcJ8kXz-3" value="" style="edgeStyle=orthogonalEdgeStyle;html=1;verticalAlign=bottom;endArrow=open;endSize=8;strokeColor=#ff0000;entryX=0;entryY=0.5;entryDx=0;entryDy=0;" edge="1" source="TeB9Y_pQrQr1MYcJ8kXz-2" parent="TeB9Y_pQrQr1MYcJ8kXz-1" target="wDfvPLdH_36bXsooYy4B-14">
          <mxGeometry relative="1" as="geometry">
            <mxPoint x="400" y="350" as="targetPoint" />
            <Array as="points">
              <mxPoint x="315" y="350" />
            </Array>
          </mxGeometry>
        </mxCell>
        <mxCell id="TeB9Y_pQrQr1MYcJ8kXz-4" value="" style="ellipse;html=1;shape=startState;fillColor=#000000;strokeColor=#ff0000;" vertex="1" parent="TeB9Y_pQrQr1MYcJ8kXz-1">
          <mxGeometry x="120" y="115" width="30" height="30" as="geometry" />
        </mxCell>
        <mxCell id="TeB9Y_pQrQr1MYcJ8kXz-5" value="" style="edgeStyle=orthogonalEdgeStyle;html=1;verticalAlign=bottom;endArrow=open;endSize=8;strokeColor=#ff0000;entryX=0;entryY=0.5;entryDx=0;entryDy=0;" edge="1" source="TeB9Y_pQrQr1MYcJ8kXz-4" parent="TeB9Y_pQrQr1MYcJ8kXz-1" target="wDfvPLdH_36bXsooYy4B-5">
          <mxGeometry relative="1" as="geometry">
            <mxPoint x="315" y="90" as="targetPoint" />
          </mxGeometry>
        </mxCell>
        <mxCell id="wDfvPLdH_36bXsooYy4B-3" value="Comprobar selección de curso" style="rounded=1;whiteSpace=wrap;html=1;arcSize=40;fontColor=#000000;fillColor=#ffffc0;strokeColor=#ff0000;" vertex="1" parent="TeB9Y_pQrQr1MYcJ8kXz-1">
          <mxGeometry x="510" y="110" width="120" height="40" as="geometry" />
        </mxCell>
        <mxCell id="wDfvPLdH_36bXsooYy4B-4" value="" style="edgeStyle=orthogonalEdgeStyle;html=1;verticalAlign=bottom;endArrow=open;endSize=8;strokeColor=#ff0000;entryX=0.5;entryY=0;entryDx=0;entryDy=0;" edge="1" source="wDfvPLdH_36bXsooYy4B-3" parent="TeB9Y_pQrQr1MYcJ8kXz-1" target="wDfvPLdH_36bXsooYy4B-8">
          <mxGeometry relative="1" as="geometry">
            <mxPoint x="520" y="210" as="targetPoint" />
          </mxGeometry>
        </mxCell>
        <mxCell id="wDfvPLdH_36bXsooYy4B-5" value="Crear Curso" style="rhombus;whiteSpace=wrap;html=1;fillColor=#ffffc0;strokeColor=#ff0000;" vertex="1" parent="TeB9Y_pQrQr1MYcJ8kXz-1">
          <mxGeometry x="275" y="110" width="80" height="40" as="geometry" />
        </mxCell>
        <mxCell id="wDfvPLdH_36bXsooYy4B-6" value="no" style="edgeStyle=orthogonalEdgeStyle;html=1;align=left;verticalAlign=bottom;endArrow=open;endSize=8;strokeColor=#ff0000;entryX=0;entryY=0.5;entryDx=0;entryDy=0;" edge="1" source="wDfvPLdH_36bXsooYy4B-5" parent="TeB9Y_pQrQr1MYcJ8kXz-1" target="wDfvPLdH_36bXsooYy4B-3">
          <mxGeometry x="-1" relative="1" as="geometry">
            <mxPoint x="270" y="130" as="targetPoint" />
          </mxGeometry>
        </mxCell>
        <mxCell id="wDfvPLdH_36bXsooYy4B-7" value="yes" style="edgeStyle=orthogonalEdgeStyle;html=1;align=left;verticalAlign=top;endArrow=open;endSize=8;strokeColor=#ff0000;" edge="1" source="wDfvPLdH_36bXsooYy4B-5" parent="TeB9Y_pQrQr1MYcJ8kXz-1" target="TeB9Y_pQrQr1MYcJ8kXz-2">
          <mxGeometry x="-1" relative="1" as="geometry">
            <mxPoint x="130" y="210" as="targetPoint" />
            <Array as="points" />
          </mxGeometry>
        </mxCell>
        <mxCell id="wDfvPLdH_36bXsooYy4B-8" value="Condition" style="rhombus;whiteSpace=wrap;html=1;fillColor=#ffffc0;strokeColor=#ff0000;" vertex="1" parent="TeB9Y_pQrQr1MYcJ8kXz-1">
          <mxGeometry x="480" y="190" width="80" height="40" as="geometry" />
        </mxCell>
        <mxCell id="wDfvPLdH_36bXsooYy4B-9" value="no" style="edgeStyle=orthogonalEdgeStyle;html=1;align=left;verticalAlign=bottom;endArrow=open;endSize=8;strokeColor=#ff0000;" edge="1" source="wDfvPLdH_36bXsooYy4B-8" parent="TeB9Y_pQrQr1MYcJ8kXz-1">
          <mxGeometry x="-1" relative="1" as="geometry">
            <mxPoint x="660" y="240" as="targetPoint" />
          </mxGeometry>
        </mxCell>
        <mxCell id="wDfvPLdH_36bXsooYy4B-10" value="yes" style="edgeStyle=orthogonalEdgeStyle;html=1;align=left;verticalAlign=top;endArrow=open;endSize=8;strokeColor=#ff0000;entryX=1;entryY=0.25;entryDx=0;entryDy=0;" edge="1" source="wDfvPLdH_36bXsooYy4B-8" parent="TeB9Y_pQrQr1MYcJ8kXz-1" target="TeB9Y_pQrQr1MYcJ8kXz-2">
          <mxGeometry x="-1" relative="1" as="geometry">
            <mxPoint x="520" y="320" as="targetPoint" />
          </mxGeometry>
        </mxCell>
        <mxCell id="wDfvPLdH_36bXsooYy4B-12" value="Mostrar mensaje de error" style="rounded=1;whiteSpace=wrap;html=1;arcSize=40;fontColor=#000000;fillColor=#ffffc0;strokeColor=#ff0000;" vertex="1" parent="TeB9Y_pQrQr1MYcJ8kXz-1">
          <mxGeometry x="600" y="240" width="120" height="40" as="geometry" />
        </mxCell>
        <mxCell id="wDfvPLdH_36bXsooYy4B-13" value="" style="edgeStyle=orthogonalEdgeStyle;html=1;verticalAlign=bottom;endArrow=open;endSize=8;strokeColor=#ff0000;" edge="1" source="wDfvPLdH_36bXsooYy4B-12" parent="TeB9Y_pQrQr1MYcJ8kXz-1" target="wDfvPLdH_36bXsooYy4B-5">
          <mxGeometry relative="1" as="geometry">
            <mxPoint x="360" y="80" as="targetPoint" />
            <Array as="points">
              <mxPoint x="740" y="260" />
              <mxPoint x="740" y="80" />
              <mxPoint x="315" y="80" />
            </Array>
          </mxGeometry>
        </mxCell>
        <mxCell id="wDfvPLdH_36bXsooYy4B-14" value="Guardar" style="rhombus;whiteSpace=wrap;html=1;fillColor=#ffffc0;strokeColor=#ff0000;" vertex="1" parent="TeB9Y_pQrQr1MYcJ8kXz-1">
          <mxGeometry x="400" y="330" width="80" height="40" as="geometry" />
        </mxCell>
        <mxCell id="wDfvPLdH_36bXsooYy4B-15" value="no" style="edgeStyle=orthogonalEdgeStyle;html=1;align=left;verticalAlign=bottom;endArrow=open;endSize=8;strokeColor=#ff0000;entryX=1;entryY=0.5;entryDx=0;entryDy=0;" edge="1" source="wDfvPLdH_36bXsooYy4B-14" parent="TeB9Y_pQrQr1MYcJ8kXz-1" target="wDfvPLdH_36bXsooYy4B-19">
          <mxGeometry x="-1" relative="1" as="geometry">
            <mxPoint x="580" y="350" as="targetPoint" />
            <Array as="points">
              <mxPoint x="610" y="350" />
              <mxPoint x="610" y="530" />
            </Array>
          </mxGeometry>
        </mxCell>
        <mxCell id="wDfvPLdH_36bXsooYy4B-16" value="yes" style="edgeStyle=orthogonalEdgeStyle;html=1;align=left;verticalAlign=top;endArrow=open;endSize=8;strokeColor=#ff0000;entryX=0.5;entryY=0;entryDx=0;entryDy=0;" edge="1" source="wDfvPLdH_36bXsooYy4B-14" parent="TeB9Y_pQrQr1MYcJ8kXz-1" target="wDfvPLdH_36bXsooYy4B-17">
          <mxGeometry x="-1" relative="1" as="geometry">
            <mxPoint x="440" y="430" as="targetPoint" />
          </mxGeometry>
        </mxCell>
        <mxCell id="wDfvPLdH_36bXsooYy4B-17" value="Guardar Curso en Base de datos" style="rounded=1;whiteSpace=wrap;html=1;arcSize=40;fontColor=#000000;fillColor=#ffffc0;strokeColor=#ff0000;" vertex="1" parent="TeB9Y_pQrQr1MYcJ8kXz-1">
          <mxGeometry x="380" y="430" width="120" height="40" as="geometry" />
        </mxCell>
        <mxCell id="wDfvPLdH_36bXsooYy4B-18" value="" style="edgeStyle=orthogonalEdgeStyle;html=1;verticalAlign=bottom;endArrow=open;endSize=8;strokeColor=#ff0000;entryX=0.5;entryY=0;entryDx=0;entryDy=0;" edge="1" source="wDfvPLdH_36bXsooYy4B-17" parent="TeB9Y_pQrQr1MYcJ8kXz-1" target="wDfvPLdH_36bXsooYy4B-19">
          <mxGeometry relative="1" as="geometry">
            <mxPoint x="440" y="530" as="targetPoint" />
          </mxGeometry>
        </mxCell>
        <mxCell id="wDfvPLdH_36bXsooYy4B-19" value="" style="ellipse;html=1;shape=endState;fillColor=#000000;strokeColor=#ff0000;" vertex="1" parent="TeB9Y_pQrQr1MYcJ8kXz-1">
          <mxGeometry x="425" y="515" width="30" height="30" as="geometry" />
        </mxCell>
      </root>
    </mxGraphModel>
  </diagram>
  <diagram id="J6TsGYkzpAbJKe3Pvp-V" name="Servicios">
    <mxGraphModel dx="728" dy="468" grid="1" gridSize="10" guides="1" tooltips="1" connect="1" arrows="1" fold="1" page="1" pageScale="1" pageWidth="827" pageHeight="1169" math="0" shadow="0">
      <root>
        <mxCell id="vPYiwOPbVT4KxOxhobG9-0" />
        <mxCell id="vPYiwOPbVT4KxOxhobG9-1" parent="vPYiwOPbVT4KxOxhobG9-0" />
        <mxCell id="vPYiwOPbVT4KxOxhobG9-10" style="edgeStyle=orthogonalEdgeStyle;rounded=0;orthogonalLoop=1;jettySize=auto;html=1;exitX=0.5;exitY=1;exitDx=0;exitDy=0;entryX=0.5;entryY=0;entryDx=0;entryDy=0;dashed=1;startArrow=blockThin;startFill=0;endArrow=none;endFill=0;" edge="1" parent="vPYiwOPbVT4KxOxhobG9-1" source="vPYiwOPbVT4KxOxhobG9-4" target="vPYiwOPbVT4KxOxhobG9-8">
          <mxGeometry relative="1" as="geometry" />
        </mxCell>
        <mxCell id="vPYiwOPbVT4KxOxhobG9-4" value="&lt;p style=&quot;margin: 0px ; margin-top: 4px ; text-align: center&quot;&gt;&lt;i&gt;&amp;lt;&amp;lt;Interface&amp;gt;&amp;gt;&lt;/i&gt;&lt;br&gt;&lt;b&gt;CursoService&lt;/b&gt;&lt;/p&gt;&lt;hr size=&quot;1&quot;&gt;&lt;p style=&quot;margin: 0px ; margin-left: 4px&quot;&gt;&lt;br&gt;&lt;/p&gt;&lt;hr size=&quot;1&quot;&gt;&lt;p style=&quot;margin: 0px ; margin-left: 4px&quot;&gt;+ crearCurso(Curso): void&lt;br&gt;+ consultarCursos(Modalidad): List&amp;lt;Curso&amp;gt;&lt;/p&gt;&lt;p style=&quot;margin: 0px ; margin-left: 4px&quot;&gt;+ editarCurso(Curso): void&lt;/p&gt;" style="verticalAlign=top;align=left;overflow=fill;fontSize=12;fontFamily=Helvetica;html=1;" vertex="1" parent="vPYiwOPbVT4KxOxhobG9-1">
          <mxGeometry x="70" y="80" width="250" height="140" as="geometry" />
        </mxCell>
        <mxCell id="vPYiwOPbVT4KxOxhobG9-7" style="edgeStyle=orthogonalEdgeStyle;rounded=0;orthogonalLoop=1;jettySize=auto;html=1;entryX=0.5;entryY=0;entryDx=0;entryDy=0;startArrow=blockThin;startFill=0;endArrow=none;endFill=0;dashed=1;" edge="1" parent="vPYiwOPbVT4KxOxhobG9-1" source="vPYiwOPbVT4KxOxhobG9-5" target="vPYiwOPbVT4KxOxhobG9-6">
          <mxGeometry relative="1" as="geometry" />
        </mxCell>
        <mxCell id="vPYiwOPbVT4KxOxhobG9-5" value="&lt;p style=&quot;margin: 0px ; margin-top: 4px ; text-align: center&quot;&gt;&lt;i&gt;&amp;lt;&amp;lt;Interface&amp;gt;&amp;gt;&lt;/i&gt;&lt;br&gt;&lt;b&gt;DescuentoService&lt;/b&gt;&lt;/p&gt;&lt;hr&gt;&lt;br&gt;&lt;hr size=&quot;1&quot;&gt;&lt;p style=&quot;margin: 0px ; margin-left: 4px&quot;&gt;+ crearDescuento(Curso, Modalidad): void&lt;br&gt;+ editarDescuento(Curso, Modalidad): void&lt;/p&gt;&lt;p style=&quot;margin: 0px ; margin-left: 4px&quot;&gt;+ consultarDescuentos(): List&lt;span&gt;&amp;lt;Descuento&amp;gt;&lt;/span&gt;&lt;br&gt;&lt;/p&gt;" style="verticalAlign=top;align=left;overflow=fill;fontSize=12;fontFamily=Helvetica;html=1;" vertex="1" parent="vPYiwOPbVT4KxOxhobG9-1">
          <mxGeometry x="414" y="80" width="246" height="140" as="geometry" />
        </mxCell>
        <mxCell id="vPYiwOPbVT4KxOxhobG9-6" value="&lt;p style=&quot;margin: 0px ; margin-top: 4px ; text-align: center&quot;&gt;&lt;b&gt;DescuentoServiceImpl&lt;/b&gt;&lt;/p&gt;&lt;hr size=&quot;1&quot;&gt;&lt;p style=&quot;margin: 0px ; margin-left: 4px&quot;&gt;+ field: Type&lt;/p&gt;&lt;hr size=&quot;1&quot;&gt;&lt;p style=&quot;margin: 0px ; margin-left: 4px&quot;&gt;+ crearDescuento(Curso, Modalidad): void&lt;br&gt;+ editarDescuento(Curso, Modalidad): void&lt;br&gt;&lt;/p&gt;&lt;p style=&quot;margin: 0px ; margin-left: 4px&quot;&gt;+ consultarDescuentos(): List&lt;span&gt;&amp;lt;Descuento&amp;gt;&lt;/span&gt;&lt;/p&gt;" style="verticalAlign=top;align=left;overflow=fill;fontSize=12;fontFamily=Helvetica;html=1;" vertex="1" parent="vPYiwOPbVT4KxOxhobG9-1">
          <mxGeometry x="414" y="310" width="276" height="110" as="geometry" />
        </mxCell>
        <mxCell id="vPYiwOPbVT4KxOxhobG9-8" value="&lt;p style=&quot;margin: 0px ; margin-top: 4px ; text-align: center&quot;&gt;&lt;b&gt;CursoServiceImpl&lt;/b&gt;&lt;/p&gt;&lt;hr size=&quot;1&quot;&gt;&lt;p style=&quot;margin: 0px ; margin-left: 4px&quot;&gt;+ field: Type&lt;/p&gt;&lt;hr size=&quot;1&quot;&gt;&lt;p style=&quot;margin: 0px 0px 0px 4px&quot;&gt;+ crearCurso(Curso): void&lt;br&gt;+ consultarCursos(Modalidad): List&amp;lt;Curso&amp;gt;&lt;/p&gt;&lt;p style=&quot;margin: 0px 0px 0px 4px&quot;&gt;+ editarCurso(Curso): void&lt;/p&gt;" style="verticalAlign=top;align=left;overflow=fill;fontSize=12;fontFamily=Helvetica;html=1;" vertex="1" parent="vPYiwOPbVT4KxOxhobG9-1">
          <mxGeometry x="70" y="310" width="250" height="110" as="geometry" />
        </mxCell>
      </root>
    </mxGraphModel>
  </diagram>
</mxfile>
